<?xml version="1.0" encoding="UTF-8"?>
<svg id="Layer_1" data-name="Layer 1" xmlns="http://www.w3.org/2000/svg" viewBox="0 0 400 250">
  <defs>
    <style>
      .cls-1 {
        fill: #333;
      }

      .cls-1, .cls-2, .cls-3 {
        stroke-width: 0px;
      }

      .cls-2 {
        fill: #fff;
      }

      .cls-3 {
        fill: #f5ce29;
      }
    </style>
  </defs>
  <path class="cls-3" d="m188.76,120.25c0,28.64,23.22,51.87,51.87,51.87s51.87-23.22,51.87-51.87h0c0-28.64-23.22-51.87-51.87-51.87s-51.87,23.22-51.87,51.87h0Z"/>
  <path class="cls-1" d="m240.62,182.65c-34.4,0-62.4-28-62.4-62.4s28-62.4,62.4-62.4,62.4,28,62.4,62.4-28,62.4-62.4,62.4Zm0-103.69c-22.75,0-41.29,18.5-41.29,41.29s18.54,41.29,41.29,41.29,41.25-18.54,41.25-41.33-18.5-41.25-41.25-41.25h0Z"/>
  <path class="cls-1" d="m192.72,18.69c4.73-2.72,10.77-1.12,13.5,3.6l9.89,17.1c2.72,4.73,1.12,10.77-3.6,13.5-4.73,2.72-10.77,1.12-13.5-3.6l-9.89-17.1c-2.76-4.77-1.12-10.77,3.6-13.5h0Zm122.44,83.47c1.4,5.29,6.81,8.41,12.1,6.97l19.06-5.13c5.29-1.4,8.41-6.81,6.97-12.1-1.4-5.29-6.81-8.41-12.1-6.97l-19.06,5.13c-5.25,1.4-8.37,6.81-6.97,12.1Zm-5.29,44.42c-1.4,5.29,1.72,10.69,6.97,12.1l19.06,5.13c5.29,1.4,10.69-1.72,12.1-6.97,1.4-5.29-1.72-10.69-6.97-12.1l-19.06-5.13c-5.25-1.4-10.65,1.72-12.1,6.97ZM258.25,4.19c5.45,0,9.89,4.41,9.89,9.89v19.75c0,5.45-4.41,9.89-9.89,9.89s-9.89-4.41-9.89-9.89V14.08c0-5.45,4.41-9.89,9.89-9.89Zm66.93,27.84c-3.84-3.84-10.09-3.84-13.98,0l-13.98,13.98c-3.84,3.84-3.84,10.09,0,13.98,3.84,3.84,10.09,3.84,13.98,0l13.98-13.98c3.88-3.88,3.88-10.13,0-13.98h0Z"/>
  <path class="cls-2" d="m97.56,236.08c-.88.08-1.72.16-2.6.2-24.23,1.36-44.46-19.91-44.46-44.46s19.91-44.46,44.46-44.46c1.68,0,3.36.08,5.01.28-.04-.92-.04-1.84-.04-2.76,0-34.08,27.64-61.72,61.72-61.72,30.12,0,55.19,21.55,60.64,50.06,2.76-.44,5.61-.68,8.49-.68,28.64,0,51.87,23.23,51.87,51.87-.08,18.3-9.53,34.4-23.87,43.62-8.09,5.21-17.7,8.53-28.04,8.21-1.4-.04-2.76-.12-4.13-.28-.44.04-.92.04-1.36.04h-127.68v.08Z"/>
  <path class="cls-1" d="m92.72,246.9c-12.98,0-25.35-5.01-35.2-14.34-11.17-10.57-17.58-25.43-17.58-40.73,0-28.56,21.91-52.15,49.78-54.75,3.93-36.17,34.64-64.44,71.85-64.44,31.4,0,58.87,20.27,68.57,49.38h.56c34.44,0,62.44,28,62.44,62.4,0,21.35-10.69,40.97-28.64,52.51-10.61,6.85-22.47,10.25-34.08,9.89-1.36-.04-2.68-.12-4.01-.24-.4,0-.8.04-1.2.04h-127.12c-.84.08-1.68.16-2.52.2-.96.04-1.88.08-2.84.08h0Zm2.2-88.95c-18.66,0-33.88,15.22-33.88,33.88,0,9.53,4.01,18.78,10.97,25.39,6.29,5.97,14.3,9.01,22.31,8.49.68-.04,1.4-.08,2.08-.16l1.12-.08h130.13c1.12.12,2.24.2,3.36.24,9.29.32,17.14-3.4,21.99-6.57,11.94-7.61,19.02-20.59,19.02-34.72,0-22.75-18.54-41.29-41.29-41.29-2.28,0-4.57.2-6.77.56l-10.17,1.68-1.92-10.13c-4.61-24.03-25.71-41.49-50.26-41.49-28.24,0-51.19,22.95-51.19,51.19,0,.76,0,1.52.04,2.28l.56,12.38-12.3-1.4c-1.24-.16-2.48-.24-3.8-.24h0Z"/>
</svg>